<svg xmlns="http://www.w3.org/2000/svg" fill="none" viewBox="0 0 600 600"><g clip-path="url(#devicon-pycharm-6-a)"><path fill="url(#devicon-pycharm-7-b)" d="M420.7 94.7 596 240.5l-63.1 128.4-105.7-29.3h-91.4z"/><path fill="url(#devicon-pycharm-8-c)" d="m244 189.4-33.9 179.5-3.2 61-85.6 37.1L0 480 36.8 92.2 256.6 0l135.5 88.8z"/><path fill="url(#devicon-pycharm-9-d)" d="m244 189.4 16.6 346-54.9 64.6L0 480l169-251.7z"/><path fill="url(#devicon-pycharm-10-e)" d="M470.4 164.1H262.6L446.2 0z"/><path fill="url(#devicon-pycharm-11-f)" d="M600 536.7 417 599l-243.7-68.7 70.8-340.8 28.2-25.3 148.4-14-13.4 149 118-45.7z"/><path fill="#000" d="M112.5 112.5h375v375h-375z"/><path fill="#fff" d="M159.3 416.6h140.6v23.5H159.3zm0-257.2H217c33.1 0 53.4 19.5 53.8 47.7v1.2c0 32.5-25.3 49.4-56.8 49.4h-23.3v42.1h-31.2zm55.4 70.8c15.2 0 24.2-8.9 24.5-20.7v-1c0-13.8-9.6-21.3-25-21.3h-23.6v43zm72.7-.1v-.4a71.3 71.3 0 0 1 73.2-72.6c20.7-1 40.9 6.8 55.4 21.6l-19.6 22.7a52 52 0 0 0-36-15.9c-23.4 0-40.3 19.3-40.7 43v1.2c0 24 16.7 44.1 40.7 44.1 14.6 0 24-5.2 34-13.7l1.5-1.4 1.5-1.3 19.6 19.8a72 72 0 0 1-57.6 25 71 71 0 0 1-72-72.1"/></g><defs><linearGradient id="devicon-pycharm-7-b" x1="-11814.2" x2="23891.9" y1="13807.2" y2="13807.2" gradientUnits="userSpaceOnUse"><stop stop-color="#21D789"/><stop offset="1" stop-color="#07C3F2"/></linearGradient><linearGradient id="devicon-pycharm-8-c" x1="-7511.8" x2="50164.4" y1="50637.5" y2="8062" gradientUnits="userSpaceOnUse"><stop offset="0" stop-color="#FCF84A"/><stop offset=".1" stop-color="#A7EB62"/><stop offset=".2" stop-color="#5FE077"/><stop offset=".3" stop-color="#32DA84"/><stop offset=".3" stop-color="#21D789"/><stop offset=".6" stop-color="#21D789"/><stop offset=".6" stop-color="#21D789"/><stop offset=".7" stop-color="#20D68C"/><stop offset=".8" stop-color="#1ED497"/><stop offset=".8" stop-color="#19D1A9"/><stop offset=".9" stop-color="#13CCC2"/><stop offset="1" stop-color="#0BC6E1"/><stop offset="1" stop-color="#07C3F2"/></linearGradient><linearGradient id="devicon-pycharm-9-d" x1="11003.5" x2="22590.8" y1="47808.1" y2="11445.9" gradientUnits="userSpaceOnUse"><stop stop-color="#21D789"/><stop offset=".2" stop-color="#24D888"/><stop offset=".3" stop-color="#2FD985"/><stop offset=".4" stop-color="#41DC80"/><stop offset=".6" stop-color="#5AE079"/><stop offset=".7" stop-color="#7AE46F"/><stop offset=".8" stop-color="#A1EA64"/><stop offset=".9" stop-color="#CFF157"/><stop offset="1" stop-color="#FCF84A"/></linearGradient><linearGradient id="devicon-pycharm-10-e" x1="-1756.2" x2="18454.9" y1="23724.2" y2="-3451.1" gradientUnits="userSpaceOnUse"><stop stop-color="#21D789"/><stop offset=".1" stop-color="#23D986"/><stop offset=".2" stop-color="#2ADE7B"/><stop offset=".3" stop-color="#36E669"/><stop offset=".3" stop-color="#3BEA62"/><stop offset=".3" stop-color="#47EB61"/><stop offset=".5" stop-color="#67ED5D"/><stop offset=".7" stop-color="#9AF156"/><stop offset=".9" stop-color="#E0F64D"/><stop offset="1" stop-color="#FCF84A"/></linearGradient><linearGradient id="devicon-pycharm-11-f" x1="45368" x2="-3257.5" y1="22800.2" y2="22348" gradientUnits="userSpaceOnUse"><stop offset=".4" stop-color="#FCF84A"/><stop offset=".5" stop-color="#ECF74C"/><stop offset=".6" stop-color="#C1F451"/><stop offset=".8" stop-color="#7EEF5A"/><stop offset="1" stop-color="#3BEA62"/></linearGradient><clipPath id="devicon-pycharm-6-a"><path fill="#fff" d="M0 0h600v600H0z"/></clipPath></defs></svg>