<svg xmlns="http://www.w3.org/2000/svg" fill="none" viewBox="0 0 600 600"><g clip-path="url(#devicon-zod-2-a)"><path fill="#18253F" d="M140 91.7h324.5l95 99.3-269 301.3L40.5 191z"/><path fill="#274D82" d="M355.8 421.2H228.6l-57.4-70.4h162.7v-10h93z"/><path fill="#274D82" d="m532.3 162.7-351 202.6-45.7-57.3 271.7-156.8-5-8.7 72.3-41.7zm-188-70.9L80.8 244l-41-51.2L216.2 91z"/><g filter="url(#devicon-zod-3-b)"><path fill="#000" d="M477.2 62H127.7L0 189l289.9 349 23.1-25.9 287-322zm-12.8 29.8 94.9 99-268.6 301.4L40.5 191 140 92z"/></g><path fill="#3068B7" d="M477.2 62H127.7L0 189l289.9 349 23.1-25.9 287-322zm-12.8 29.8 94.9 99-268.6 301.4L40.5 191 140 92z"/></g><defs><clipPath id="devicon-zod-2-a"><path fill="#fff" d="M0 0h600v600H0z"/></clipPath><filter id="devicon-zod-3-b" width="608" height="484.1" x="-3" y="58.9" color-interpolation-filters="sRGB" filterUnits="userSpaceOnUse"><feFlood flood-opacity="0" result="BackgroundImageFix"/><feColorMatrix in="SourceAlpha" result="hardAlpha" values="0 0 0 0 0 0 0 0 0 0 0 0 0 0 0 0 0 0 127 0"/><feOffset dx="1" dy="1"/><feGaussianBlur stdDeviation="2"/><feColorMatrix values="0 0 0 0 0 0 0 0 0 0 0 0 0 0 0 0 0 0 0.36 0"/><feBlend in2="BackgroundImageFix" result="effect1_dropShadow_1_17243"/><feBlend in="SourceGraphic" in2="effect1_dropShadow_1_17243" result="shape"/></filter></defs></svg>